<mxfile host="app.diagrams.net" modified="2021-09-22T07:14:22.995Z" agent="5.0 (Windows NT 10.0; Win64; x64) AppleWebKit/537.36 (KHTML, like Gecko) Chrome/93.0.4577.63 Safari/537.36 Edg/93.0.961.38" etag="WApxD_HyPIjwzW6F1Uxv" version="15.2.9" type="github">
  <diagram id="-lNwksoksxSVDFmeff47" name="第 1 页">
    <mxGraphModel dx="1422" dy="833" grid="1" gridSize="10" guides="1" tooltips="1" connect="1" arrows="1" fold="1" page="1" pageScale="1" pageWidth="827" pageHeight="1169" background="#DAD2D8" math="0" shadow="0">
      <root>
        <mxCell id="0" />
        <mxCell id="1" parent="0" />
        <mxCell id="u3060Xiz0gm15m5jxgF5-1" value="" style="shape=hexagon;perimeter=hexagonPerimeter2;whiteSpace=wrap;html=1;fixedSize=1;sketch=1;fillColor=#FAE5C7;strokeColor=#0F8B8D;fontColor=#143642;" vertex="1" parent="1">
          <mxGeometry x="340" y="320" width="120" height="80" as="geometry" />
        </mxCell>
        <mxCell id="u3060Xiz0gm15m5jxgF5-2" value="" style="shape=internalStorage;whiteSpace=wrap;html=1;backgroundOutline=1;sketch=1;fillColor=#FAE5C7;strokeColor=#0F8B8D;fontColor=#143642;" vertex="1" parent="1">
          <mxGeometry x="430" y="230" width="80" height="80" as="geometry" />
        </mxCell>
        <mxCell id="u3060Xiz0gm15m5jxgF5-3" value="" style="shape=step;perimeter=stepPerimeter;whiteSpace=wrap;html=1;fixedSize=1;sketch=1;fillColor=#FAE5C7;strokeColor=#0F8B8D;fontColor=#143642;" vertex="1" parent="1">
          <mxGeometry x="220" y="530" width="120" height="80" as="geometry" />
        </mxCell>
        <mxCell id="u3060Xiz0gm15m5jxgF5-4" value="Vertical Container" style="swimlane;sketch=1;fillColor=#FAE5C7;strokeColor=#0F8B8D;fontColor=#143642;" vertex="1" collapsed="1" parent="1">
          <mxGeometry x="660" y="377" width="130" height="23" as="geometry">
            <mxRectangle x="790" y="510" width="200" height="200" as="alternateBounds" />
          </mxGeometry>
        </mxCell>
      </root>
    </mxGraphModel>
  </diagram>
</mxfile>
